<svg width="210" height="189" viewBox="0 0 210 189" fill="none" xmlns="http://www.w3.org/2000/svg">
<g clip-path="url(#clip0_89_2628)">
<path d="M26.6152 182.095C26.6214 167.075 26.6275 152.055 26.6387 136.534C26.639 133.999 26.6341 131.965 26.6548 129.67C26.6977 121.714 26.7151 114.019 26.9869 106.297C38.7045 106.261 50.1678 106.253 61.63 106.509C61.6396 131.889 61.6502 157.007 61.4045 182.146C49.6373 182.144 38.1263 182.119 26.6152 182.095Z" fill="#98735F"/>
<path d="M183.313 30.4868C183.899 30.9075 184.741 31.1987 185.031 31.7701C186.791 35.2346 190.256 36.0517 193.419 37.2838C197.805 38.9925 200.297 41.9746 200.877 46.7558C201.731 53.7853 202.853 60.7824 203.873 67.7915C204.382 71.2922 203.591 74.4862 200.698 76.5606C197.083 79.1521 196.498 82.4236 197.087 86.5071C197.578 89.9093 197.517 93.3946 197.615 96.8455C197.628 97.3115 197.142 97.7917 196.431 98.2448C190.642 98.2156 185.311 98.207 179.973 97.952C179.973 96.0813 179.979 94.457 180.05 92.6521C180.807 91.6684 181.499 90.8653 182.129 90.1334C180.462 87.9504 178.873 85.8711 177.256 83.5819C177.535 81.1444 178.041 78.9224 178.104 76.688C178.194 73.4411 177.833 70.1826 177.897 66.9336C178.081 57.5402 178.381 48.1492 178.702 38.5394C178.692 36.6086 179.14 35.2264 180.885 34.468C182.585 33.7294 183.479 32.4083 183.313 30.4868ZM190.553 70.872C190.481 70.8773 190.409 70.8826 190.104 71.0094C189.958 71.1176 189.856 71.2577 189.636 71.5025C189.706 71.4937 189.775 71.4849 190.083 71.3618C190.234 71.2563 190.336 71.1155 190.553 70.872ZM195.395 70.61C195.595 70.5985 195.795 70.5869 195.996 70.5753C195.762 70.4968 195.529 70.4183 195.032 70.0485C192.681 69.6397 191.757 68.2218 191.257 65.8758C190.053 60.2275 188.463 54.6616 187.029 49.0624C186.617 49.8688 186.657 50.5752 186.825 51.2501C188.107 56.4167 189.599 61.5403 190.639 66.7544C191.204 69.5868 192.313 70.9506 195.395 70.61Z" fill="#FCB036"/>
<path d="M55.5266 69.0316C56.5512 69.4881 57.5911 69.9133 58.5959 70.4098C59.6014 70.9067 60.5717 71.4746 61.3582 72.2427C60.3125 72.5447 59.466 72.6154 58.6473 72.6838C58.6473 74.4103 58.6473 75.8655 58.6473 77.4891C59.731 77.4891 60.6084 77.4891 61.5142 77.7405C61.5233 84.3368 61.504 90.6816 61.2886 97.0047C59.493 96.6072 57.8933 96.2314 56.231 95.7457C56.07 95.4913 55.9401 95.3859 55.6436 95.166C52.0933 94.0917 48.6778 93.1709 45.2624 92.2501C45.201 92.5094 45.1396 92.7687 45.0782 93.028C48.5082 93.9091 51.9383 94.7902 55.432 95.8923C55.5191 97.706 55.5425 99.2987 55.3171 100.929C52.107 100.976 49.1445 101.044 46.1849 100.979C42.4329 100.897 38.6834 100.707 34.7551 100.475C33.8061 99.2031 32.7922 98.111 32.3051 96.8202C30.1682 91.1573 28.1836 85.4368 26.1438 79.7372C24.99 74.5043 25.542 73.1912 30.2183 70.8911C31.827 70.4839 33.0308 70.0565 34.2714 69.8456C36.6828 69.4355 38.7885 68.886 38.9679 65.7771C38.9927 65.3463 40.5874 65.0061 41.4466 64.8088C43.6456 68.9649 45.8532 72.936 48.1651 77.0946C48.488 75.8448 48.7774 74.559 49.1553 73.2997C49.7917 71.179 50.4843 69.0751 51.2638 67.1508C51.7811 68.1238 52.1879 68.9101 52.7493 69.9953C53.6285 69.6902 54.5776 69.3609 55.5266 69.0316ZM38.5543 81.2986C38.2994 80.6026 38.0444 79.9066 37.7895 79.2106C37.6079 79.2664 37.4264 79.3222 37.2448 79.3779C37.9878 82.5089 38.7309 85.6398 39.4739 88.7707C39.7047 88.7205 39.9356 88.6703 40.1665 88.6201C39.668 86.3198 39.1695 84.0195 38.5543 81.2986Z" fill="#FDFDFD"/>
<path d="M179.978 98.199C185.31 98.2076 190.642 98.2162 196.236 98.2533C197.022 120.306 197.557 142.33 198.032 164.355C198.052 165.292 197.525 166.241 196.793 167.265C193.93 167.426 191.527 167.506 188.933 167.538C186.85 167.608 186.516 166.168 186.08 164.597C186.524 160.786 187.015 157.212 187.407 153.627C188.074 147.528 188.892 141.435 189.247 135.317C189.562 129.879 186.374 126.278 181.098 125.025C180.858 121.807 180.552 118.811 180.246 115.815C180.084 115.821 179.923 115.827 179.761 115.833C179.385 118.826 179.009 121.819 178.398 124.813C177.864 123.973 177.255 123.11 177.317 122.298C177.665 117.715 178.134 113.139 178.641 108.57C179.025 105.106 179.528 101.656 179.978 98.199Z" fill="#5B5E6A"/>
<path d="M149.491 70.0867C152.288 70.6169 155.086 71.1471 158.109 71.7201C158.669 66.0092 159.223 60.2825 159.797 54.5578C159.951 53.029 160.258 51.5112 160.337 49.9803C160.638 44.2024 163.712 40.5421 168.767 38.0235C170.308 37.2553 171.311 35.4052 172.772 34.1548C173.391 35.2122 173.797 36.1655 174.143 37.3609C173.672 53.7993 173.262 69.9956 172.711 86.2991C171.139 88.1727 169.708 89.939 168.048 91.695C165.893 91.6651 165.513 93.0272 165.31 94.52C165.144 95.7391 165.019 96.9638 164.78 97.975C164.671 92.8825 164.658 88.0009 164.808 82.9343C165.068 82.4036 165.248 82.0582 165.248 81.7124C165.265 71.7595 165.284 61.8066 165.236 51.854C165.231 50.7358 164.828 49.6195 164.59 48.4009C164.59 60.0584 164.59 71.5572 164.351 83.0477C161.087 82.2668 157.993 81.69 155.054 80.6672C152.078 79.6317 149.257 78.155 146.359 76.6791C146.407 76.2379 146.462 75.9891 146.626 75.6296C147.96 74.4534 149.185 73.3879 150.602 72.1561C150.55 72.0791 150.275 71.6767 149.982 71.1438C149.806 70.7044 149.649 70.3956 149.491 70.0867Z" fill="#FCB036"/>
<path d="M83.9213 69.3173C79.8352 69.3206 75.7487 69.2938 71.6631 69.3395C69.5182 69.3635 68.7055 68.4964 69.1134 66.3188C70.3161 59.8981 71.4641 53.4666 72.5619 47.0272C72.8659 45.2437 73.779 44.6357 75.5353 44.6454C84.797 44.6965 94.0591 44.6947 103.321 44.6504C105.501 44.64 106.288 45.5292 105.898 47.6643C104.709 54.1797 103.646 60.7201 102.309 67.2044C102.135 68.0507 100.733 68.8287 99.7364 69.2611C98.9714 69.593 97.9488 69.3307 96.6495 69.2348C95.237 67.3353 94.2031 65.5407 93.1975 63.7303C91.8201 61.2506 89.064 60.2837 85.4573 61.2418C82.8137 61.9442 84.1953 64.2156 83.9453 65.8063C83.7657 66.9496 83.9174 68.1451 83.9213 69.3173Z" fill="#52597A"/>
<path d="M25.8913 79.7546C28.1835 85.4371 30.1681 91.1576 32.305 96.8205C32.7921 98.1114 33.806 99.2034 34.5705 100.615C31.1131 100.843 27.6626 100.843 24.2279 100.843C24.2279 102.964 24.2279 104.457 24.2279 106.048C25.1581 106.151 25.9455 106.238 26.7329 106.325C26.7155 114.019 26.698 121.714 26.4139 129.649C25.06 129.885 23.951 129.738 22.8898 129.901C20.5666 130.259 19.9448 128.984 19.6616 127.032C17.6411 113.099 15.6518 99.1613 13.454 85.2565C13.0473 82.6835 13.551 81.0429 15.841 79.9349C19.1069 79.8805 22.3729 79.8261 25.8913 79.7546Z" fill="#3F4553"/>
<path d="M146.518 75.7402C146.463 75.989 146.408 76.2378 146.332 76.823C146.287 77.2536 146.263 77.3479 145.98 77.4491C117.642 77.4671 89.5636 77.4782 61.485 77.4893C60.6076 77.4893 59.7302 77.4893 58.6465 77.4893C58.6465 75.8658 58.6465 74.4105 58.6465 72.6841C59.4653 72.6157 60.3117 72.545 61.3923 72.4321C68.5708 72.4153 75.5151 72.4407 82.8584 72.4559C83.4524 72.4322 83.6474 72.4189 84.1055 72.4423C88.8353 72.4582 93.302 72.4373 97.7687 72.4165C110.449 72.442 123.129 72.4674 136.258 72.5783C138.449 72.967 140.19 73.2704 142.099 73.6481C143.685 74.395 145.102 75.0676 146.518 75.7402Z" fill="#C49B8B"/>
<path d="M41.4543 64.6239C40.5864 65.006 38.9917 65.3462 38.9669 65.777C38.7875 68.8859 36.6818 69.4354 34.2704 69.8455C33.0298 70.0564 31.8261 70.4839 30.4043 70.8076C30.4814 69.0375 30.4583 67.1539 31.0993 65.5329C32.5813 61.7849 32.9862 58.1689 31.9694 54.1598C31.3507 51.7202 31.4331 48.8626 32.0428 46.4014C33.3379 41.1736 37.6688 38.8281 42.4623 38.1424C45.6164 37.6913 49.1924 38.167 52.2081 39.2559C56.5306 40.8166 57.7076 45.4537 55.1508 49.6626C51.7403 48.2916 48.7158 46.8883 45.6434 45.4628C44.4445 47.5686 42.9831 50.1353 41.9506 51.9488C39.8998 51.4438 38.0552 50.3577 37.036 50.8805C35.3241 51.7586 35.9884 53.753 36.8847 55.2002C38.1049 57.1705 39.6178 58.9702 40.7214 60.9975C41.2849 62.0325 41.2298 63.4043 41.4543 64.6239Z" fill="#333642"/>
<path d="M15.602 79.8713C13.551 81.0428 13.0472 82.6834 13.4539 85.2565C15.6517 99.1613 17.6411 113.099 19.6616 127.032C19.9447 128.984 20.5666 130.259 22.8898 129.901C23.9509 129.738 25.0599 129.885 26.3884 129.911C26.6344 131.965 26.6393 133.999 26.6032 136.293C24.3833 136.536 22.2045 136.523 20.0257 136.502C16.5153 136.469 15.4541 135.634 14.9257 132.231C13.5754 123.535 12.2747 114.831 10.9621 106.129C9.97429 99.5802 9.03368 93.0239 8.00692 86.4812C7.15304 81.0401 8.20881 79.7578 13.7291 79.7783C14.2738 79.7803 14.8184 79.7976 15.602 79.8713Z" fill="#4C5365"/>
<path d="M174.204 37.1186C173.797 36.1653 173.391 35.2121 172.931 34.0742C172.748 33.4805 172.743 32.8479 172.47 32.6956C168.26 30.3467 167.905 26.4007 168.029 22.2325C168.061 21.1583 168.049 20.0828 168.206 18.5973C168.573 16.8953 168.792 15.6037 169.006 14.3381C170.399 14.4733 171.483 14.7335 172.534 14.6386C173.691 14.5342 174.818 14.1001 175.959 13.8152C179.792 12.8584 181.669 14.3232 181.685 18.2488C181.688 19.0153 181.801 19.7812 181.862 20.5167C183.209 20.2078 184.327 19.9517 185.444 19.6956C187.072 21.8725 186.466 23.9171 184.593 25.3679C182.822 26.7397 182.681 28.226 183.275 30.2872C183.478 32.4087 182.585 33.7298 180.885 34.4684C179.139 35.2268 178.692 36.609 178.507 38.5329C176.899 38.202 175.551 37.6603 174.204 37.1186Z" fill="#D1AFA3"/>
<path d="M41.4452 64.8093C41.2294 63.4049 41.2845 62.0331 40.721 60.998C39.6174 58.9707 38.1046 57.171 36.8844 55.2008C35.988 53.7535 35.3237 51.7591 37.0356 50.8811C38.0548 50.3583 39.8994 51.4444 41.9502 51.9493C42.9827 50.1359 44.4441 47.5692 45.643 45.4634C48.7154 46.8889 51.7399 48.2921 54.9778 49.7716C54.9796 53.2609 54.768 56.674 54.3692 60.4094C53.5412 61.563 53.0533 62.6228 52.2265 63.1759C50.6794 64.211 50.486 65.4115 51.1519 66.9646C50.483 69.0756 49.7903 71.1795 49.1539 73.3002C48.776 74.5595 48.4867 75.8453 48.1637 77.0951C45.8518 72.9365 43.6442 68.9654 41.4452 64.8093Z" fill="#D1AFA3"/>
<path d="M200.474 181.933C200.242 182.16 199.981 182.173 199.272 182.193C194.111 182.206 189.398 182.211 184.685 182.216C184.543 182.192 184.401 182.168 184.037 181.867C184.649 177.629 185.482 173.668 186.503 169.62C189.006 168.084 191.386 168.308 193.794 169.258C194.678 171.949 196.074 174.174 198.229 176.184C199.544 177.41 199.743 179.833 200.474 181.933Z" fill="#342821"/>
<path d="M158.001 181.576C158.232 181.804 158.494 181.817 159.203 181.837C164.363 181.849 169.076 181.855 173.789 181.86C173.931 181.836 174.074 181.812 174.438 181.51C173.826 177.272 172.993 173.311 171.971 169.264C169.468 167.728 167.088 167.951 164.68 168.902C163.797 171.592 162.401 173.817 160.246 175.827C158.931 177.054 158.731 179.476 158.001 181.576Z" fill="#342821"/>
<path d="M185.528 19.4984C184.327 19.9515 183.21 20.2076 181.862 20.5165C181.802 19.781 181.688 19.0151 181.685 18.2486C181.67 14.323 179.792 12.8582 175.96 13.815C174.818 14.0999 173.692 14.534 172.535 14.6384C171.483 14.7333 170.4 14.4731 169.006 14.3379C168.792 15.6035 168.574 16.8951 168.219 18.3398C167.489 16.3515 166.695 14.2371 166.4 12.0552C166.283 11.1849 167.096 10.0121 167.782 9.23966C171.618 4.91849 180.772 5.01993 184.521 9.38594C187.129 12.4226 187.229 15.7785 185.528 19.4984Z" fill="#333642"/>
<path d="M97.7161 72.2419C93.3026 72.4376 88.8359 72.4585 84.0915 72.3417C83.8137 72.2042 83.7129 72.0259 83.7129 72.0259C83.7756 71.2749 83.8384 70.5238 83.9116 69.5452C83.9182 68.1455 83.7664 66.95 83.9461 65.8067C84.1961 64.216 82.8145 61.9446 85.4581 61.2422C89.0647 60.2841 91.8209 61.251 93.1983 63.7307C94.2039 65.5411 95.2378 67.3357 96.408 69.2539C96.9256 70.2694 97.2943 71.1682 97.7161 72.2419Z" fill="#6A718F"/>
<path d="M141.93 73.5733C140.189 73.27 138.448 72.9666 136.51 72.5643C135.297 70.429 134.244 68.4102 133.302 66.3408C133.127 65.9562 133.4 65.3675 133.815 64.7151C135.601 64.8465 137.046 65.1112 138.476 65.4367C139.108 65.5804 139.757 66.1104 140.321 66.0133C142.771 65.591 143.875 67.3444 145.336 68.7199C146.621 69.9293 146.127 70.6253 144.864 71.5013C143.773 72.2542 142.851 72.9138 141.93 73.5733Z" fill="#D1AFA3"/>
<path d="M145.035 71.4087C146.128 70.6262 146.622 69.9301 145.337 68.7207C143.876 67.3452 142.772 65.5918 140.322 66.0141C139.758 66.1112 139.11 65.5812 138.478 65.4375C137.047 65.112 135.603 64.8473 133.937 64.5729C133.156 63.8309 132.426 63.0397 134.066 62.697C134.331 62.6417 134.601 62.6125 134.865 62.5546C142.17 60.9508 142.169 60.9512 146.642 66.6953C147.473 67.762 148.315 68.8204 149.322 69.9848C149.65 70.3959 149.808 70.7048 149.76 71.1871C148.049 71.3766 146.542 71.3927 145.035 71.4087Z" fill="#E74C3C"/>
<path d="M51.2625 67.1516C50.486 65.4118 50.6794 64.2112 52.2266 63.1762C53.0534 62.623 53.5413 61.5632 54.3391 60.6382C55.243 63.1869 56.7319 65.7325 55.5391 68.8296C54.5763 69.3616 53.6272 69.691 52.748 69.996C52.1866 68.9109 51.7798 68.1246 51.2625 67.1516Z" fill="#333642"/>
<path d="M193.795 169.02C191.386 168.307 189.006 168.083 186.495 169.406C186.241 168.714 186.183 168.15 186.125 167.585C188.528 167.505 190.931 167.426 193.584 167.356C193.821 167.839 193.808 168.311 193.795 169.02Z" fill="#C49B8B"/>
<path d="M165.006 168.527C167.202 167.482 169.372 167.155 171.663 169.091C171.894 168.079 171.947 167.252 172 166.426C169.809 166.309 167.618 166.192 165.198 166.091C164.981 166.797 164.993 167.489 165.006 168.527Z" fill="#C49B8B"/>
<path d="M83.6048 72.039C83.7112 72.0261 83.812 72.2044 83.8266 72.3052C83.6463 72.4194 83.4512 72.4327 83.1133 72.413C83.1464 72.2706 83.3224 72.1612 83.6048 72.039Z" fill="#FDFDFD"/>
<path d="M61.514 77.7413C89.5642 77.4787 117.643 77.4676 146.036 77.6927C146.325 79.5872 146.3 81.2454 146.012 82.902C122.934 82.8968 100.119 82.8834 77.3042 82.9027C74.5991 82.905 70.74 82.0563 69.4918 83.4548C68.0481 85.0723 68.9942 88.7499 68.7314 91.5168C68.5156 93.7892 69.3431 94.4482 71.6172 94.4325C85.6146 94.3357 99.613 94.3718 113.611 94.3879C124.516 94.4005 135.422 94.4482 146.389 94.689C146.397 97.8107 146.344 100.724 146.028 103.637C141.951 103.635 138.138 103.629 134.325 103.629C113.534 103.628 92.7433 103.663 71.953 103.582C69.5672 103.573 68.3971 104.046 68.7155 106.695C68.9305 108.485 68.9134 110.339 68.7202 112.134C68.4197 114.925 69.5258 115.67 72.2585 115.66C96.9525 115.57 121.647 115.616 146.366 115.877C146.358 118.896 146.325 121.66 146.026 124.414C144.218 124.396 142.675 124.38 141.132 124.38C118.072 124.379 95.0126 124.424 71.9535 124.319C69.2759 124.307 68.4251 125.12 68.6915 127.695C68.8867 129.581 68.8528 131.514 68.6974 133.408C68.519 135.581 69.1465 136.403 71.5156 136.394C95.1194 136.305 118.724 136.332 142.347 136.57C142.056 139.593 141.745 142.374 141.164 145.142C123.194 145.126 105.493 145.122 87.7931 145.118C82.3468 145.117 76.8996 145.176 71.4548 145.088C69.4786 145.056 68.6121 145.709 68.7315 147.753C68.8478 149.743 68.9567 151.771 68.7092 153.737C68.3456 156.623 69.5347 157.161 72.2051 157.151C94.8972 157.06 117.59 157.118 140.283 157.38C140.032 160.538 139.78 163.449 139.281 166.353C116.594 166.344 94.1541 166.381 71.7146 166.281C69.2437 166.27 68.4887 167.025 68.723 169.38C68.9021 171.179 68.9098 173.026 68.7215 174.823C68.4698 177.227 69.3184 177.898 71.7424 177.888C93.8185 177.795 115.895 177.84 137.972 177.81C138.914 177.808 139.855 177.458 140.953 177.358C142.78 178.317 144.451 179.188 146.146 180.237C146.341 180.979 146.513 181.542 146.685 182.105C127.237 182.131 107.789 182.162 88.3409 182.181C79.6162 182.19 70.8916 182.174 61.9139 182.147C61.6503 157.007 61.6397 131.889 61.6234 106.271C61.594 104.127 61.5704 102.485 61.5656 100.605C61.5511 99.2551 61.5177 98.1412 61.4844 97.0272C61.5037 90.6824 61.5231 84.3375 61.514 77.7413Z" fill="#98735F"/>
<path d="M61.5455 100.842C61.5692 102.484 61.5929 104.127 61.6233 106.008C50.1668 106.253 38.7035 106.261 26.9859 106.297C25.9441 106.238 25.1567 106.151 24.2266 106.048C24.2266 104.458 24.2266 102.964 24.2266 100.843C27.6612 100.843 31.1117 100.843 34.7468 100.703C38.6819 100.707 42.4315 100.898 46.1834 100.98C49.143 101.045 52.1056 100.977 55.4975 100.935C56.0487 100.89 56.1693 100.878 56.5286 100.888C58.36 100.887 59.9528 100.864 61.5455 100.842Z" fill="#C49B8B"/>
<path d="M174.144 37.3604C175.553 37.6599 176.901 38.2016 178.443 38.7503C178.382 48.1492 178.082 57.5402 177.898 66.9336C177.834 70.1826 178.195 73.4411 178.105 76.688C178.042 78.9224 177.536 81.1444 177.083 83.6759C175.576 84.717 174.215 85.4542 172.854 86.1913C173.264 69.995 173.674 53.7988 174.144 37.3604Z" fill="#FBFCFD"/>
<path d="M172.712 86.2986C174.215 85.4543 175.576 84.7171 177.111 83.886C178.874 85.8712 180.462 87.9505 182.13 90.1335C181.5 90.8654 180.808 91.6684 180.051 92.6522C179.12 93.9102 178.254 94.9875 177.061 96.265C175.604 96.4169 174.474 96.3687 173.219 96.2033C172.091 95.62 171.088 95.1539 169.921 94.6117C169.435 94.818 168.699 95.1307 167.906 95.2117C167.993 93.8883 168.136 92.7966 168.279 91.7049C169.709 89.9385 171.14 88.1722 172.712 86.2986Z" fill="#D1AFA3"/>
<path d="M189.846 71.4763C189.776 71.4851 189.706 71.4939 189.729 71.4786C189.821 71.4546 189.846 71.4763 189.846 71.4763Z" fill="#37617A"/>
<path d="M190.338 70.888C190.41 70.8827 190.481 70.8775 190.459 70.892C190.365 70.9118 190.338 70.888 190.338 70.888Z" fill="#37617A"/>
<path d="M61.5652 100.605C59.9536 100.864 58.3609 100.886 56.5108 100.68C56.2667 98.9191 56.2799 97.3876 56.2931 95.8562C57.8927 96.2319 59.4923 96.6076 61.288 97.0051C61.5174 98.1409 61.5507 99.2548 61.5652 100.605Z" fill="#D1AFA3"/>
<path d="M144.865 71.5017C146.542 71.3923 148.048 71.3762 149.778 71.3171C150.276 71.6766 150.551 72.0791 150.603 72.156C149.186 73.3878 147.961 74.4534 146.627 75.6296C145.102 75.0676 143.685 74.3951 142.1 73.6481C142.852 72.9142 143.774 72.2546 144.865 71.5017Z" fill="#FBFCFD"/>
<path d="M187.848 182.367C192.399 182.211 197.112 182.206 202.076 182.205C199.782 182.379 197.239 182.63 194.691 182.691C192.466 182.745 190.237 182.584 187.848 182.367Z" fill="#324E5B"/>
<path d="M146.028 103.636C146.369 107.499 146.447 111.362 146.433 115.424C121.647 115.616 96.9525 115.57 72.2585 115.659C69.5258 115.669 68.4197 114.925 68.7202 112.133C68.9134 110.338 68.9305 108.485 68.7155 106.695C68.3971 104.045 69.5672 103.572 71.953 103.581C92.7433 103.663 113.534 103.628 134.325 103.629C138.138 103.629 141.951 103.634 146.028 103.636Z" fill="#C49B8B"/>
<path d="M146.339 124.966C142.763 126.827 142.98 130.326 142.395 133.413C142.247 134.195 142.404 135.034 142.374 136.087C118.723 136.332 95.119 136.304 71.5151 136.394C69.146 136.403 68.5185 135.58 68.6969 133.407C68.8524 131.514 68.8862 129.581 68.691 127.694C68.4246 125.12 69.2755 124.307 71.9531 124.319C95.0122 124.423 118.072 124.378 141.131 124.38C142.675 124.38 144.218 124.396 146.026 124.414C146.311 124.544 146.332 124.664 146.339 124.966Z" fill="#C49B8B"/>
<path d="M146.012 82.9015C146.351 86.594 146.428 90.2849 146.416 94.2277C135.422 94.4476 124.516 94.4 113.611 94.3874C99.6128 94.3713 85.6144 94.3352 71.617 94.432C69.3429 94.4477 68.5154 93.7887 68.7312 91.5163C68.994 88.7494 68.0479 85.0718 69.4916 83.4543C70.7398 82.0558 74.5989 82.9045 77.304 82.9022C100.119 82.8829 122.934 82.8963 146.012 82.9015Z" fill="#C49B8B"/>
<path d="M141.163 145.142C141.125 149.021 140.816 152.887 140.394 156.943C117.589 157.118 94.8965 157.06 72.2045 157.151C69.534 157.161 68.345 156.623 68.7085 153.737C68.956 151.771 68.8471 149.743 68.7308 147.753C68.6114 145.709 69.4779 145.056 71.4542 145.088C76.899 145.176 82.3462 145.117 87.7924 145.118C105.493 145.122 123.193 145.126 141.163 145.142Z" fill="#C49B8B"/>
<path d="M139.28 166.353C139.452 168.779 139.379 171.201 139.428 173.987C139.749 174.611 139.947 174.869 140.144 175.126C140.144 175.126 140.135 175.089 140.083 175.295C140.286 176.09 140.541 176.68 140.796 177.27C139.854 177.457 138.912 177.808 137.97 177.809C115.894 177.84 93.8172 177.794 71.7411 177.888C69.3171 177.898 68.4685 177.227 68.7202 174.823C68.9085 173.026 68.9008 171.178 68.7218 169.379C68.4874 167.024 69.2425 166.27 71.7134 166.281C94.1528 166.381 116.593 166.344 139.28 166.353Z" fill="#CB997E"/>
<path d="M174.504 124.783C171.404 125.003 168.324 124.972 164.99 124.919C165.338 118.82 165.925 112.743 166.546 106.67C166.82 103.992 167.161 101.321 167.728 98.4211C169.826 97.7264 172.474 99.5643 173.344 96.3206C174.474 96.3688 175.604 96.417 176.976 96.4177C176.624 102.9 176.044 109.432 175.431 115.96C175.162 118.821 174.829 121.675 174.504 124.783Z" fill="#5B5E6A"/>
<path d="M173.219 96.2033C172.473 99.5643 169.826 97.7264 167.743 98.1853C167.57 97.3679 167.639 96.5601 167.836 95.5978C168.699 95.1308 169.435 94.8181 169.921 94.6118C171.088 95.154 172.091 95.6201 173.219 96.2033Z" fill="#D1D8E0"/>
<path d="M140.142 174.951C139.948 174.868 139.751 174.61 139.539 174.175C139.73 174.256 139.934 174.516 140.142 174.951Z" fill="#287272"/>
<path d="M69.8184 127.364C69.8184 125.707 71.1615 124.364 72.8184 124.364H146.182V136.364H72.8184C71.1615 136.364 69.8184 135.02 69.8184 133.364V127.364Z" fill="#C49B8B"/>
<path d="M69.8184 148.091C69.8184 146.434 71.1615 145.091 72.8184 145.091H146.182V157.091H72.8184C71.1615 157.091 69.8184 155.748 69.8184 154.091V148.091Z" fill="#C49B8B"/>
<path d="M69.8184 168.818C69.8184 167.161 71.1615 165.818 72.8184 165.818H146.182V177.818H72.8184C71.1615 177.818 69.8184 176.475 69.8184 174.818V168.818Z" fill="#C49B8B"/>
<path d="M70.3633 115.636H146.727V124.364H70.3633V115.636Z" fill="#98735F"/>
<path d="M70.3633 136.364H146.727V145.091H70.3633V136.364Z" fill="#98735F"/>
<path d="M70.3633 157.091H146.727V165.818H70.3633V157.091Z" fill="#98735F"/>
<rect x="164.727" y="88" width="3.27273" height="13" fill="#FCB036"/>
<rect x="180" y="111.271" width="8.60143" height="56.5459" transform="rotate(-1.95952 180 111.271)" fill="#5B5E6A"/>
<path d="M167.572 99.072L181.218 100.585L173.801 167.473L163.137 166.29C161.491 166.108 160.304 164.625 160.486 162.978L167.572 99.072Z" fill="#5B5E6A"/>
</g>
<defs>
<clipPath id="clip0_89_2628">
<rect width="210" height="188.182" fill="white"/>
</clipPath>
</defs>
</svg>
