<svg xmlns="http://www.w3.org/2000/svg" width="120" height="80" viewBox="0 0 120 80" fill="none">
<path d="M59.4665 34.9258L67.8642 67.0629L37.3021 74.9943L27 35.6001L57.1721 27.7715L59.4665 34.9258Z" fill="#DFE1E5"/>
<g style="mix-blend-mode:multiply" opacity="0.1">
<path d="M65.8108 67.5888L67.4398 65.4173L65.9255 59.623L58.5833 69.4745L65.8108 67.5888Z" fill="#091E42"/>
</g>
<path d="M47.2944 50.823L56.2199 48.5372C56.669 50.2859 56.5885 52.1278 55.9886 53.8309C55.3886 55.534 54.2961 57.0221 52.8486 58.1077C51.4011 59.1933 49.6635 59.8278 47.8546 59.9313C46.0458 60.0348 44.2467 59.6026 42.6839 58.6892C41.1212 57.7758 39.8649 56.4221 39.0732 54.7986C38.2815 53.1751 37.9899 51.3544 38.2351 49.5661C38.4803 47.7778 39.2514 46.1018 40.4511 44.7493C41.6509 43.3968 43.2257 42.4283 44.977 41.9658V41.9658L47.2944 50.823Z" fill="#FCB123"/>
<path d="M49.0498 48.1028L46.7554 39.2114C49.1171 38.6187 51.6182 38.9759 53.7178 40.2056C55.8173 41.4353 57.3467 43.4387 57.9753 45.7828V45.8628L49.0498 48.1028Z" fill="#FF8B00"/>
<path d="M38.564 66.983L50.1969 63.9658" stroke="#0065FF" stroke-width="0.59" stroke-miterlimit="10"/>
<path d="M39.3213 69.8625L48.0517 67.5996" stroke="#0065FF" stroke-width="0.59" stroke-miterlimit="10"/>
<g style="mix-blend-mode:multiply" opacity="0.1">
<path d="M59.4665 34.9258L57.172 27.7715L48.7628 29.9543L45.8145 40.9029L62.1739 45.2686L59.4665 34.9258Z" fill="#091E42"/>
</g>
<path d="M92.9999 15.1543L84.6366 47.2914L54.063 39.4057L64.3077 0L87.5965 6.01143L92.9999 15.1543Z" fill="#FF7143"/>
<path d="M93 15.1546L85.7151 13.2689L87.5965 6.01172L93 15.1546Z" fill="#FFD5C4"/>
<path d="M59.0764 33.0176L70.7208 36.0233" stroke="white" stroke-width="0.59" stroke-linejoin="round"/>
<path d="M58.3308 35.8975L67.0727 38.1603" stroke="white" stroke-width="0.59" stroke-linejoin="round"/>
<path d="M92.9999 15.1543L84.6366 47.2914L54.063 39.4057L64.3077 0L87.5965 6.01143L92.9999 15.1543Z" fill="#0065FF"/>
<path d="M93 15.1546L85.7151 13.2689L87.5965 6.01172L93 15.1546Z" fill="#3384FF"/>
<path d="M59.0764 33.0176L70.7208 36.0233" stroke="white" stroke-width="0.59" stroke-linejoin="round"/>
<path d="M58.3308 35.8975L67.0727 38.1603" stroke="white" stroke-width="0.59" stroke-linejoin="round"/>
<path d="M65.7649 7.32617L78.0632 10.4919" stroke="white" stroke-width="0.59" stroke-linejoin="round"/>
<path d="M64.4914 15.1201L60.7056 29.6915L83.283 35.5201" stroke="white" stroke-width="0.59" stroke-miterlimit="10"/>
<path d="M86.6558 21.326C73.7266 18.0002 73.7036 33.0517 60.6711 29.7145" stroke="#FFAB00" stroke-width="0.59" stroke-miterlimit="10" stroke-linecap="square"/>
<path d="M34.221 9.56577L31.1036 12.2294L29.7517 10.6593C29.5671 10.4542 29.4254 10.2144 29.335 9.95394C29.2447 9.69352 29.2075 9.41774 29.2256 9.14279C29.2437 8.86784 29.3167 8.59927 29.4405 8.35284C29.5642 8.10641 29.7361 7.88709 29.9461 7.70775V7.70775C30.157 7.53539 30.3999 7.40611 30.6609 7.32729C30.922 7.24848 31.1961 7.22167 31.4675 7.2484C31.739 7.27514 32.0025 7.35489 32.243 7.4831C32.4835 7.61131 32.6963 7.78547 32.8692 7.99563L34.221 9.56577Z" fill="#0065FF"/>
<path d="M46.2835 29.8604L49.4358 27.167L34.259 9.53982L31.1067 12.2333L46.2835 29.8604Z" fill="url(#paint0_linear)"/>
<path d="M51.3671 32.5946L49.4283 27.166L46.2734 29.8632L51.3671 32.5946Z" fill="#FEEFD3"/>
<path d="M51.3671 32.5942L50.6787 30.6514L49.5544 31.6114L51.3671 32.5942Z" fill="#0065FF"/>
<path d="M47.8489 28.5088L49.425 27.1621L34.2482 9.53494L32.6721 10.8817L47.8489 28.5088Z" fill="#FCB123"/>
<path d="M76.4569 52.7661C75.999 52.4616 75.4384 52.3507 74.8984 52.4578C74.3584 52.565 73.8832 52.8814 73.5774 53.3375L72.4302 55.0518L75.8719 57.3375L77.0191 55.6232C77.3223 55.1693 77.4333 54.6145 77.328 54.0795C77.2228 53.5444 76.9097 53.0724 76.4569 52.7661V52.7661Z" fill="#0065FF"/>
<path d="M72.4253 55.0629L59.4639 74.3652L61.1898 75.5154L74.1512 56.213L72.4253 55.0629Z" fill="url(#paint1_linear)"/>
<path d="M72.4187 55.0518L74.151 56.206L75.8719 57.3489L72.4187 55.0518Z" fill="#0065FF"/>
<path d="M72.4187 55.0518L74.151 56.206L75.8719 57.3489L72.4187 55.0518Z" fill="url(#paint2_linear)"/>
<path d="M74.1512 56.2061L61.1875 75.5089L62.9083 76.6632L75.872 57.3489L74.1512 56.2061Z" fill="#FCB123"/>
<path d="M58.2046 80.0001L58.6061 78.1943L58.2046 80.0001Z" fill="#FEEFD3"/>
<path d="M59.4666 74.3662L58.6406 77.9662L59.8682 78.7891L59.6731 78.9262L62.9083 76.6634L59.4666 74.3662Z" fill="#FEEFD3"/>
<path d="M58.652 77.9883L58.6061 78.194L58.2046 79.9997L59.6845 78.9483L59.891 78.8111L58.652 77.9883Z" fill="#0065FF"/>
<defs>
<linearGradient id="paint0_linear" x1="32.6754" y1="10.8779" x2="47.7929" y2="28.5707" gradientUnits="userSpaceOnUse">
<stop stop-color="#FFAB00"/>
<stop offset="1" stop-color="#FFE380"/>
</linearGradient>
<linearGradient id="paint1_linear" x1="159775" y1="106658" x2="159752" y2="106693" gradientUnits="userSpaceOnUse">
<stop stop-color="#FFAB00"/>
<stop offset="1" stop-color="#FFE380"/>
</linearGradient>
<linearGradient id="paint2_linear" x1="16509" y1="11405.8" x2="16508.8" y2="11406" gradientUnits="userSpaceOnUse">
<stop stop-color="#FFAB00"/>
<stop offset="1" stop-color="#FFE380"/>
</linearGradient>
</defs>
</svg>