<svg width="512" height="512" viewBox="0 0 512 512" fill="none" xmlns="http://www.w3.org/2000/svg">
<path d="M338.005 295.668L371.521 262.151C383.229 265.423 396.299 262.472 405.491 253.281C414.343 244.41 417.426 231.964 414.721 220.616L401.311 234.026L393.877 241.46L383.739 238.736L373.6 236.031L370.877 225.874L368.154 215.736L375.587 208.303L388.997 194.892C377.649 192.187 365.203 195.27 356.351 204.122C347.14 213.333 344.189 226.403 347.461 238.092L330.681 254.872V243.361C330.681 218.423 322.081 193.901 306.464 174.312C298.226 163.979 288.218 155.222 277.053 148.424L277.202 147.354C277.367 146.173 277.055 144.974 276.336 144.023C275.617 143.071 274.55 142.444 273.369 142.279C272.573 142.169 271.762 142.274 271.02 142.583C270.278 142.892 269.633 143.394 269.151 144.037C262.326 140.601 255.156 137.864 247.758 135.913C247.898 132.741 246.87 129.79 244.741 127.306C242.304 124.489 239.046 123 235.318 123H203.873C200.133 123 196.868 124.489 194.425 127.314C192.303 129.79 191.275 132.739 191.414 135.913C184.021 137.863 176.855 140.597 170.035 144.03C169.553 143.388 168.909 142.887 168.168 142.579C167.427 142.271 166.617 142.168 165.823 142.279C165.238 142.36 164.675 142.556 164.165 142.855C163.656 143.154 163.211 143.55 162.855 144.021C162.499 144.493 162.239 145.029 162.09 145.601C161.942 146.172 161.907 146.768 161.989 147.353L162.136 148.413C150.965 155.213 140.95 163.973 132.708 174.311C117.092 193.9 108.491 218.422 108.491 243.36V256.39H105.05C100.611 256.39 97 260.001 97 264.44V287.035C97 291.474 100.611 295.085 105.05 295.085H290.468L264.561 320.992C252.872 317.72 239.802 320.67 230.591 329.882C221.739 338.734 218.657 351.179 221.361 362.528L234.772 349.118L242.205 341.684L252.344 344.408L262.501 347.131L265.205 357.27L267.929 367.408L260.495 374.841L247.085 388.252C258.434 390.957 270.879 387.873 279.75 379.022C288.942 369.829 291.893 356.76 288.62 345.052L316.383 317.29L382.53 386.508C383.694 387.727 385.279 388.412 386.99 388.436H387.08C388.787 388.436 390.454 387.752 391.675 386.544L407.268 370.951C407.876 370.339 408.356 369.613 408.68 368.815C409.005 368.016 409.168 367.161 409.16 366.3C409.14 364.582 408.456 362.993 407.232 361.823L338.004 295.667L338.005 295.668Z" fill="#FFC338"/>
<path d="M316.482 205.227L316.056 204.782C310.544 199.28 302.219 195.349 293.786 194.266C284.442 193.066 276.332 195.372 270.956 200.756L264.137 207.575C260.251 205.333 255.181 205.854 251.852 209.163L229.888 231.146C227.969 233.054 226.913 235.604 226.913 238.327C226.913 240.153 227.398 241.896 228.289 243.423L221.027 250.685L220.243 249.9C217.741 247.398 213.65 247.393 211.113 249.902L201.049 259.983C200.448 260.577 199.971 261.285 199.645 262.065C199.32 262.845 199.153 263.682 199.153 264.527C199.148 265.379 199.313 266.224 199.638 267.012C199.962 267.8 200.441 268.515 201.045 269.116L225.21 293.282C225.809 293.884 226.522 294.361 227.307 294.686C228.091 295.01 228.932 295.176 229.782 295.174H229.8C230.645 295.175 231.481 295.009 232.26 294.684C233.039 294.359 233.747 293.883 234.34 293.282L244.409 283.213C245.013 282.612 245.491 281.897 245.816 281.109C246.141 280.321 246.306 279.476 246.3 278.624C246.302 277.779 246.135 276.943 245.811 276.164C245.486 275.385 245.009 274.678 244.409 274.084L243.634 273.309L250.904 266.039C252.444 266.939 254.195 267.414 255.979 267.415H255.994C258.711 267.415 261.262 266.36 263.179 264.443L285.165 242.457C288.611 239.01 289.048 233.664 286.475 229.719C292.264 219.28 305.748 210.662 315.242 208.995C315.643 208.925 316.017 208.747 316.325 208.48C316.633 208.214 316.862 207.869 316.989 207.482C317.116 207.096 317.136 206.682 317.047 206.285C316.957 205.888 316.761 205.523 316.48 205.228L316.482 205.227Z" fill="#A79BA7"/>
<path d="M313.407 272.148L283.781 243.842L264.565 263.058L292.872 292.683L313.407 272.148ZM338.005 295.668L316.383 317.29L382.53 386.508C383.694 387.727 385.279 388.412 386.99 388.435H387.08C388.787 388.435 390.454 387.752 391.675 386.544L407.268 370.951C407.876 370.339 408.356 369.613 408.68 368.815C409.005 368.016 409.168 367.161 409.16 366.299C409.14 364.582 408.456 362.993 407.232 361.823L338.004 295.667L338.005 295.668Z" fill="#837683"/>
<path d="M177.892 233.594C176.808 233.592 175.761 233.199 174.943 232.486C174.126 231.774 173.594 230.79 173.444 229.716L161.989 147.353C161.908 146.768 161.942 146.173 162.091 145.602C162.24 145.03 162.499 144.493 162.856 144.022C163.212 143.551 163.657 143.155 164.166 142.856C164.675 142.557 165.239 142.361 165.824 142.28C168.284 141.935 170.555 143.654 170.897 146.114L182.352 228.476C182.441 229.114 182.392 229.763 182.208 230.379C182.025 230.996 181.711 231.566 181.288 232.051C180.866 232.536 180.344 232.925 179.758 233.191C179.172 233.457 178.536 233.595 177.892 233.594ZM244.742 127.307C242.305 124.489 239.047 123.001 235.319 123.001H203.874C200.134 123.001 196.869 124.49 194.426 127.314C192.004 130.14 191.007 133.582 191.544 137.271L199.748 192.944C200.673 199.106 205.858 203.578 212.077 203.578H227.097C233.338 203.578 238.524 199.102 239.428 192.937L247.631 137.267C248.167 133.582 247.17 130.14 244.742 127.306L244.742 127.307Z" fill="#EAA824"/>
<path d="M371.521 262.151L288.62 345.051C291.893 356.759 288.942 369.829 279.75 379.021C270.879 387.873 258.434 390.956 247.085 388.251L260.495 374.841L267.929 367.407L265.205 357.269L262.501 347.131L252.344 344.407L242.205 341.684L234.772 349.117L221.361 362.528C218.657 351.179 221.74 338.733 230.591 329.881C239.802 320.67 252.872 317.719 264.561 320.991L347.462 238.09C344.19 226.401 347.14 213.332 356.352 204.121C365.204 195.268 377.649 192.186 388.997 194.891L375.587 208.301L368.154 215.735L370.877 225.873L373.6 236.03L383.739 238.735L393.877 241.458L401.311 234.025L414.721 220.614C417.426 231.963 414.343 244.408 405.491 253.279C396.298 262.472 383.229 265.422 371.521 262.15L371.521 262.151Z" fill="#9FACBA"/>
<path d="M372.365 205.078L364.932 212.512L367.655 222.65L371.062 235.353L373.602 236.031L370.878 225.874L368.155 215.735L375.588 208.302L388.999 194.891C387.157 194.458 385.284 194.176 383.396 194.047L372.365 205.078ZM252.343 344.409L262.5 347.132L261.822 344.592L249.12 341.186L238.981 338.462L231.548 345.896L220.517 356.927C220.65 358.809 220.921 360.684 221.361 362.529L234.771 349.119L242.205 341.685L252.343 344.409ZM415.08 222.361C414.014 232.303 408.871 243.44 402.269 250.057C393.076 259.25 380.007 262.2 368.299 258.928L285.398 341.829C288.67 353.537 285.719 366.607 276.527 375.799C269.472 382.838 258.343 388.04 248.372 388.516C259.367 390.7 271.213 387.54 279.751 379.021C288.943 369.829 291.893 356.759 288.621 345.051L371.522 262.15C383.23 265.423 396.3 262.472 405.492 253.28C413.892 244.861 417.087 233.225 415.08 222.361Z" fill="#909FAD"/>
<path d="M284.289 329.822C283.399 329.822 282.53 329.558 281.79 329.064C281.051 328.57 280.474 327.867 280.134 327.046C279.793 326.224 279.704 325.32 279.878 324.447C280.052 323.575 280.48 322.774 281.109 322.145L348.614 254.64C349.46 253.811 350.599 253.349 351.784 253.355C352.969 253.36 354.104 253.834 354.942 254.672C355.78 255.51 356.253 256.644 356.259 257.829C356.265 259.014 355.803 260.154 354.974 261L287.469 328.505C287.052 328.923 286.556 329.254 286.011 329.48C285.465 329.706 284.88 329.822 284.289 329.822H284.289Z" fill="#909FAD"/>
<path d="M244.41 274.085L220.244 249.9C217.741 247.399 213.65 247.394 211.114 249.902L201.05 259.984C200.449 260.577 199.971 261.285 199.646 262.065C199.32 262.845 199.153 263.682 199.154 264.527C199.149 265.379 199.313 266.224 199.638 267.012C199.963 267.8 200.441 268.515 201.045 269.116L225.211 293.282C225.81 293.884 226.522 294.361 227.307 294.686C228.092 295.011 228.933 295.176 229.782 295.174H229.801C230.645 295.175 231.481 295.009 232.261 294.684C233.04 294.359 233.747 293.883 234.341 293.283L244.409 283.214C245.014 282.612 245.492 281.897 245.817 281.109C246.141 280.321 246.306 279.476 246.301 278.624C246.302 277.78 246.136 276.943 245.811 276.164C245.486 275.385 245.011 274.678 244.41 274.085ZM285.166 228.099L266.224 209.158C262.264 205.221 255.819 205.221 251.853 209.163L229.888 231.146C227.97 233.055 226.913 235.605 226.913 238.327C226.913 241.049 227.971 243.602 229.886 245.505L248.819 264.438C250.724 266.354 253.267 267.411 255.981 267.416H255.996C258.712 267.416 261.264 266.361 263.181 264.444L285.166 242.458C289.113 238.511 289.115 232.072 285.166 228.101V228.099Z" fill="#9B919B"/>
<path d="M244.41 274.085L243.231 272.904C243.022 274.249 242.39 275.493 241.426 276.455L231.357 286.524C230.763 287.125 230.056 287.601 229.277 287.926C228.498 288.251 227.662 288.417 226.817 288.416H226.799C225.949 288.418 225.108 288.252 224.323 287.928C223.539 287.603 222.826 287.126 222.227 286.524L199.24 263.536C199.187 263.864 199.158 264.195 199.155 264.526C199.149 265.379 199.314 266.223 199.639 267.011C199.964 267.799 200.442 268.515 201.046 269.116L225.212 293.281C225.811 293.883 226.523 294.36 227.308 294.685C228.092 295.01 228.934 295.176 229.783 295.173H229.802C230.646 295.175 231.482 295.008 232.261 294.683C233.041 294.359 233.748 293.882 234.341 293.282L244.41 283.213C245.014 282.612 245.493 281.896 245.817 281.108C246.142 280.32 246.307 279.475 246.302 278.623C246.303 277.779 246.137 276.943 245.812 276.163C245.487 275.384 245.011 274.677 244.41 274.084V274.085ZM285.166 228.099L280.285 223.218C284.234 227.191 284.232 233.629 280.285 237.576L258.299 259.561C257.358 260.507 256.238 261.257 255.005 261.767C253.771 262.277 252.449 262.538 251.114 262.533H251.099C248.387 262.53 245.845 261.473 243.94 259.559L248.818 264.438C250.723 266.354 253.266 267.41 255.98 267.415H255.995C258.712 267.415 261.263 266.36 263.18 264.443L285.166 242.457C289.113 238.511 289.114 232.072 285.166 228.1L285.166 228.099Z" fill="#8D828E"/>
<path d="M264.137 207.575L269.577 202.135L277.204 147.355C277.352 146.181 277.031 144.997 276.312 144.058C275.593 143.119 274.533 142.501 273.362 142.338C272.191 142.175 271.002 142.479 270.054 143.186C269.106 143.893 268.474 144.945 268.296 146.114L259.922 206.26C261.406 206.385 262.845 206.834 264.137 207.575Z" fill="#EAA824"/>
<path d="M264.566 263.058L263.181 264.443C262.239 265.388 261.12 266.138 259.886 266.648C258.653 267.158 257.331 267.419 255.996 267.415H255.981C254.197 267.414 252.446 266.939 250.906 266.039L243.636 273.309L244.411 274.084C245.623 275.282 246.297 276.897 246.302 278.623C246.308 279.476 246.143 280.32 245.818 281.108C245.494 281.897 245.015 282.612 244.411 283.213L234.342 293.282C233.388 294.246 232.15 294.878 230.81 295.086H290.47L292.873 292.683L264.566 263.057L264.566 263.058ZM313.407 272.148L329.164 256.392H296.916L313.407 272.148ZM225.212 293.282L201.046 269.117C200.442 268.515 199.964 267.8 199.639 267.012C199.314 266.224 199.15 265.38 199.155 264.527C199.154 263.682 199.321 262.845 199.646 262.065C199.972 261.285 200.449 260.577 201.051 259.984L204.636 256.392H105.05C100.611 256.392 97.0007 260.003 97.0007 264.442V287.037C97.0007 291.475 100.611 295.086 105.05 295.086H228.754C227.412 294.876 226.172 294.244 225.212 293.282Z" fill="#EAA824"/>
<path d="M269.146 144.046C263.997 141.455 258.657 139.251 253.165 137.494C258.442 139.819 263.53 142.554 268.38 145.672C268.523 145.084 268.783 144.531 269.146 144.046V144.046ZM296.829 171.76C304.109 181.176 309.863 191.7 313.933 202.856C314.669 203.466 315.378 204.108 316.056 204.782L316.482 205.228C316.721 205.478 316.9 205.782 317.003 206.113C317.105 206.444 317.13 206.795 317.074 207.138C317.019 207.48 316.884 207.805 316.682 208.087C316.479 208.369 316.214 208.6 315.907 208.762C319.28 219.787 321.046 231.331 321.046 242.964V256.391H329.163L330.682 254.873V243.361C330.682 218.423 322.082 193.901 306.465 174.312C298.229 163.98 288.214 155.238 277.053 148.44L276.625 151.511C284.185 157.385 290.973 164.188 296.829 171.76L296.829 171.76Z" fill="#F5B829"/>
<path d="M338.005 295.668L333.136 300.537L399.636 364.091C400.86 365.261 401.545 366.85 401.564 368.567C401.573 369.429 401.41 370.284 401.086 371.083C400.761 371.882 400.281 372.608 399.673 373.219L384.859 388.033C385.541 388.288 386.262 388.424 386.99 388.435H387.081C388.787 388.435 390.455 387.752 391.676 386.544L407.269 370.951C407.876 370.339 408.356 369.613 408.681 368.815C409.006 368.016 409.169 367.161 409.16 366.299C409.141 364.582 408.456 362.993 407.232 361.823L338.005 295.667V295.668ZM313.407 272.148L283.781 243.842L278.91 248.713L308.532 277.023L313.407 272.148Z" fill="#776A77"/>
<path d="M248.818 264.438L246.642 262.26L239.616 269.286L244.411 274.084L243.636 273.308L250.906 266.039C250.143 265.598 249.442 265.06 248.819 264.437L248.818 264.438ZM316.482 205.228L316.056 204.782C315.088 203.823 314.06 202.927 312.978 202.099C313.113 202.536 313.118 203.011 312.97 203.461C312.843 203.848 312.613 204.193 312.305 204.459C311.998 204.726 311.623 204.903 311.222 204.974C301.788 206.63 288.418 215.151 282.568 225.502L285.166 228.099C285.666 228.603 286.102 229.146 286.476 229.719C292.265 219.28 305.75 210.661 315.244 208.994C315.644 208.924 316.019 208.746 316.326 208.48C316.634 208.213 316.864 207.868 316.991 207.482C317.118 207.095 317.138 206.681 317.048 206.284C316.958 205.887 316.763 205.522 316.482 205.228Z" fill="#9B919B"/>
</svg>
