<svg width="512" height="512" viewBox="0 0 512 512" fill="none" xmlns="http://www.w3.org/2000/svg">
<path d="M383.116 317.586L435.284 265.418C453.507 270.511 473.85 265.918 488.157 251.611C501.935 237.804 506.733 218.433 502.523 200.769L481.65 221.642L470.08 233.212L454.3 228.973L438.52 224.763L434.281 208.954L430.042 193.174L441.612 181.604L462.485 160.731C444.821 156.521 425.45 161.32 411.672 175.097C397.335 189.434 392.742 209.777 397.835 227.97L371.717 254.088V236.171C371.717 197.356 358.331 159.188 334.024 128.698C321.202 112.615 305.624 98.986 288.247 88.404L288.479 86.739C288.735 84.9004 288.25 83.0355 287.131 81.5544C286.012 80.0732 284.351 79.0972 282.512 78.841C281.273 78.669 280.011 78.832 278.856 79.313C277.702 79.7939 276.697 80.5754 275.947 81.576C265.325 76.229 254.165 71.969 242.65 68.931C242.867 63.994 241.267 59.401 237.954 55.535C234.161 51.15 229.089 48.833 223.287 48.833H174.344C168.523 48.833 163.441 51.151 159.638 55.547C156.335 59.401 154.736 63.991 154.952 68.931C143.445 71.967 132.291 76.223 121.676 81.565C120.926 80.5664 119.923 79.787 118.77 79.3077C117.617 78.8285 116.357 78.667 115.12 78.84C114.21 78.9665 113.333 79.2711 112.54 79.7365C111.748 80.2019 111.054 80.8188 110.5 81.5522C109.946 82.2855 109.542 83.1209 109.31 84.0105C109.079 84.9001 109.025 85.8266 109.152 86.737L109.381 88.387C91.994 98.971 76.406 112.606 63.578 128.697C39.271 159.187 25.885 197.354 25.885 236.17V256.451H20.528C13.619 256.451 7.99902 262.072 7.99902 268.981V304.149C7.99902 311.058 13.619 316.678 20.528 316.678H309.127L268.803 357.002C250.609 351.909 230.267 356.501 215.93 370.839C202.152 384.617 197.354 403.988 201.564 421.652L222.437 400.779L234.007 389.209L249.787 393.448L265.596 397.687L269.806 413.467L274.045 429.247L262.475 440.817L241.602 461.69C259.266 465.9 278.637 461.101 292.444 447.324C306.752 433.016 311.344 412.674 306.251 394.451L349.462 351.24L452.418 458.976C454.231 460.873 456.697 461.939 459.36 461.976H459.501C462.157 461.976 464.752 460.912 466.653 459.032L490.923 434.762C491.868 433.81 492.615 432.68 493.121 431.437C493.626 430.194 493.88 428.864 493.867 427.522C493.837 424.849 492.771 422.375 490.866 420.555L383.115 317.585L383.116 317.586Z" fill="#FFC338"/>
<path d="M349.616 176.818L348.953 176.125C340.374 167.561 327.417 161.442 314.291 159.757C299.748 157.889 287.125 161.478 278.757 169.858L268.143 180.472C262.094 176.983 254.204 177.794 249.022 182.944L214.835 217.159C211.849 220.13 210.205 224.099 210.205 228.336C210.205 231.178 210.96 233.891 212.346 236.269L201.044 247.571L199.824 246.35C195.929 242.456 189.561 242.448 185.613 246.352L169.949 262.044C169.013 262.968 168.27 264.07 167.764 265.284C167.257 266.498 166.997 267.8 166.998 269.116C166.99 270.442 167.246 271.757 167.752 272.984C168.257 274.21 169.002 275.323 169.942 276.259L207.555 313.872C208.487 314.809 209.596 315.551 210.818 316.057C212.039 316.562 213.348 316.821 214.67 316.817H214.699C216.013 316.819 217.315 316.56 218.528 316.054C219.741 315.549 220.841 314.807 221.765 313.873L237.437 298.201C238.377 297.265 239.122 296.151 239.627 294.925C240.133 293.698 240.389 292.383 240.381 291.057C240.383 289.743 240.124 288.442 239.619 287.229C239.113 286.016 238.372 284.916 237.437 283.992L236.231 282.785L247.546 271.47C249.943 272.87 252.669 273.609 255.445 273.611H255.469C259.697 273.611 263.668 271.969 266.652 268.985L300.872 234.765C306.236 229.4 306.917 221.079 302.911 214.939C311.922 198.691 332.91 185.276 347.687 182.682C348.311 182.572 348.893 182.295 349.372 181.881C349.851 181.466 350.209 180.929 350.406 180.328C350.604 179.726 350.635 179.082 350.495 178.464C350.356 177.846 350.051 177.277 349.614 176.819L349.616 176.818Z" fill="#A79BA7"/>
<path d="M344.83 280.978L298.719 236.92L268.81 266.829L312.868 312.94L344.83 280.978ZM383.116 317.586L349.462 351.24L452.418 458.976C454.231 460.873 456.697 461.939 459.36 461.976H459.501C462.157 461.976 464.752 460.912 466.653 459.032L490.923 434.762C491.868 433.81 492.615 432.68 493.121 431.437C493.626 430.194 493.88 428.863 493.867 427.522C493.837 424.849 492.771 422.375 490.866 420.555L383.115 317.585L383.116 317.586Z" fill="#837683"/>
<path d="M133.906 220.969C132.218 220.966 130.588 220.354 129.316 219.245C128.044 218.136 127.215 216.605 126.982 214.933L109.153 86.738C109.026 85.8276 109.08 84.9012 109.312 84.0116C109.543 83.122 109.947 82.2867 110.501 81.5534C111.056 80.8201 111.749 80.2031 112.541 79.7377C113.334 79.2723 114.211 78.9676 115.121 78.841C118.951 78.304 122.485 80.981 123.018 84.809L140.847 213.004C140.985 213.996 140.909 215.006 140.623 215.966C140.338 216.926 139.85 217.813 139.192 218.568C138.534 219.323 137.721 219.928 136.809 220.342C135.898 220.757 134.907 220.97 133.906 220.969ZM237.956 55.536C234.163 51.151 229.091 48.834 223.289 48.834H174.346C168.525 48.834 163.443 51.152 159.64 55.548C155.87 59.946 154.319 65.303 155.154 71.046L167.923 157.698C169.363 167.289 177.434 174.251 187.113 174.251H210.492C220.206 174.251 228.278 167.284 229.684 157.688L242.452 71.039C243.287 65.303 241.735 59.946 237.955 55.535L237.956 55.536Z" fill="#EAA824"/>
<path d="M435.284 265.417L306.251 394.45C311.344 412.673 306.751 433.016 292.444 447.323C278.637 461.101 259.266 465.899 241.602 461.689L262.475 440.816L274.045 429.246L269.806 413.466L265.596 397.686L249.787 393.447L234.007 389.208L222.437 400.778L201.564 421.651C197.354 403.987 202.153 384.616 215.93 370.838C230.267 356.501 250.61 351.908 268.803 357.001L397.836 227.968C392.743 209.774 397.335 189.432 411.673 175.095C425.451 161.317 444.822 156.519 462.485 160.729L441.612 181.602L430.042 193.172L434.281 208.952L438.52 224.761L454.3 228.971L470.08 233.21L481.65 221.64L502.523 200.767C506.733 218.431 501.934 237.802 488.156 251.609C473.848 265.917 453.506 270.509 435.283 265.416L435.284 265.417Z" fill="#9FACBA"/>
<path d="M436.597 176.586L425.027 188.156L429.266 203.936L434.568 223.707L438.522 224.762L434.283 208.953L430.044 193.173L441.614 181.603L462.487 160.73C459.621 160.056 456.705 159.617 453.767 159.416L436.597 176.586ZM249.786 393.45L265.595 397.689L264.54 393.735L244.769 388.433L228.989 384.194L217.419 395.764L200.249 412.934C200.457 415.864 200.878 418.782 201.563 421.654L222.436 400.781L234.006 389.211L249.786 393.45ZM503.082 203.485C501.423 218.96 493.418 236.294 483.141 246.594C468.833 260.902 448.491 265.494 430.268 260.401L301.235 389.434C306.328 407.657 301.735 428 287.428 442.307C276.447 453.264 259.124 461.36 243.605 462.101C260.719 465.501 279.157 460.583 292.445 447.323C306.753 433.015 311.345 412.673 306.252 394.45L435.285 265.417C453.508 270.51 473.851 265.917 488.158 251.61C501.233 238.507 506.206 220.395 503.082 203.485Z" fill="#909FAD"/>
<path d="M299.509 370.745C298.124 370.745 296.771 370.335 295.62 369.566C294.469 368.797 293.572 367.703 293.042 366.424C292.512 365.145 292.373 363.738 292.644 362.38C292.914 361.022 293.581 359.775 294.56 358.796L399.629 253.727C400.946 252.436 402.72 251.717 404.564 251.726C406.408 251.735 408.175 252.472 409.479 253.776C410.783 255.08 411.52 256.847 411.529 258.691C411.538 260.535 410.819 262.309 409.528 263.626L304.459 368.695C303.81 369.346 303.038 369.862 302.189 370.214C301.34 370.566 300.429 370.746 299.51 370.745H299.509Z" fill="#909FAD"/>
<path d="M237.439 283.992L199.825 246.35C195.93 242.456 189.562 242.448 185.614 246.352L169.95 262.044C169.014 262.969 168.271 264.07 167.764 265.284C167.258 266.498 166.998 267.801 166.999 269.116C166.991 270.443 167.247 271.757 167.753 272.984C168.258 274.21 169.003 275.324 169.943 276.259L207.556 313.872C208.488 314.809 209.597 315.552 210.819 316.057C212.04 316.563 213.349 316.821 214.671 316.817H214.7C216.014 316.819 217.316 316.56 218.529 316.055C219.742 315.549 220.842 314.808 221.766 313.873L237.438 298.201C238.378 297.265 239.123 296.152 239.628 294.925C240.134 293.699 240.39 292.384 240.382 291.057C240.384 289.743 240.125 288.442 239.62 287.229C239.114 286.016 238.374 284.916 237.439 283.992ZM300.875 212.417L271.392 182.935C265.228 176.807 255.197 176.807 249.023 182.944L214.836 217.159C211.85 220.13 210.206 224.099 210.206 228.336C210.206 232.573 211.852 236.546 214.833 239.509L244.301 268.978C247.266 271.96 251.224 273.605 255.448 273.612H255.472C259.7 273.612 263.671 271.97 266.655 268.986L300.875 234.766C307.018 228.623 307.021 218.601 300.875 212.419V212.417Z" fill="#9B919B"/>
<path d="M237.439 283.992L235.603 282.154C235.278 284.248 234.294 286.184 232.794 287.682L217.122 303.354C216.198 304.289 215.098 305.03 213.885 305.536C212.672 306.041 211.37 306.3 210.056 306.298H210.027C208.705 306.302 207.396 306.044 206.174 305.538C204.953 305.033 203.844 304.29 202.912 303.353L167.133 267.574C167.05 268.083 167.005 268.599 167 269.115C166.992 270.441 167.248 271.756 167.753 272.982C168.259 274.209 169.004 275.322 169.944 276.258L207.557 313.871C208.489 314.808 209.598 315.55 210.82 316.056C212.041 316.561 213.35 316.82 214.672 316.816H214.701C216.015 316.818 217.317 316.559 218.53 316.053C219.743 315.548 220.843 314.806 221.767 313.872L237.439 298.2C238.379 297.264 239.124 296.15 239.629 294.924C240.135 293.697 240.391 292.382 240.383 291.056C240.385 289.742 240.126 288.441 239.621 287.228C239.115 286.015 238.374 284.914 237.439 283.991V283.992ZM300.875 212.417L293.277 204.82C299.423 211.003 299.42 221.024 293.277 227.167L259.057 261.387C257.591 262.859 255.848 264.026 253.929 264.82C252.009 265.614 249.951 266.02 247.874 266.013H247.85C243.629 266.007 239.672 264.363 236.707 261.383L244.3 268.977C247.265 271.959 251.223 273.604 255.447 273.611H255.471C259.699 273.611 263.67 271.969 266.654 268.985L300.874 234.765C307.017 228.622 307.02 218.6 300.874 212.418L300.875 212.417Z" fill="#8D828E"/>
<path d="M268.143 180.472L276.61 172.005L288.481 86.7398C288.711 84.9135 288.213 83.07 287.094 81.6085C285.975 80.147 284.325 79.1851 282.502 78.9312C280.678 78.6773 278.829 79.1517 277.353 80.2518C275.877 81.3519 274.894 82.9891 274.616 84.8088L261.582 178.424C263.892 178.619 266.132 179.318 268.143 180.472Z" fill="#EAA824"/>
<path d="M268.81 266.829L266.655 268.984C265.189 270.456 263.446 271.623 261.527 272.417C259.607 273.211 257.549 273.617 255.472 273.61H255.448C252.672 273.609 249.946 272.87 247.549 271.469L236.234 282.784L237.44 283.991C239.326 285.855 240.376 288.369 240.384 291.056C240.392 292.383 240.136 293.698 239.631 294.924C239.125 296.151 238.38 297.264 237.44 298.2L221.768 313.872C220.283 315.372 218.356 316.356 216.27 316.679H309.129L312.869 312.939L268.811 266.828L268.81 266.829ZM344.83 280.978L369.355 256.453H319.162L344.83 280.978ZM207.557 313.872L169.944 276.259C169.004 275.324 168.259 274.21 167.754 272.984C167.248 271.757 166.992 270.443 167 269.116C166.998 267.801 167.258 266.498 167.765 265.284C168.272 264.07 169.015 262.968 169.951 262.044L175.532 256.453H20.529C13.62 256.453 8 262.074 8 268.983V304.151C8 311.06 13.62 316.68 20.529 316.68H213.071C210.982 316.353 209.051 315.369 207.557 313.872Z" fill="#EAA824"/>
<path d="M275.939 81.5901C267.926 77.5571 259.614 74.1281 251.066 71.3921C259.279 75.0117 267.198 79.2676 274.748 84.1211C274.969 83.2058 275.375 82.3451 275.939 81.5911V81.5901ZM319.027 124.726C330.358 139.383 339.314 155.763 345.649 173.127C346.795 174.075 347.898 175.076 348.953 176.125L349.616 176.818C349.989 177.209 350.267 177.68 350.427 178.196C350.587 178.712 350.625 179.258 350.538 179.791C350.452 180.324 350.243 180.83 349.927 181.269C349.612 181.707 349.2 182.067 348.722 182.319C353.972 199.48 356.72 217.447 356.72 235.553V256.453H369.355L371.719 254.089V236.172C371.719 197.357 358.333 159.189 334.026 128.699C321.206 112.618 305.619 99.0101 288.246 88.4301L287.581 93.2101C299.347 102.352 309.912 112.941 319.028 124.727L319.027 124.726Z" fill="#F5B829"/>
<path d="M383.116 317.586L375.538 325.164L479.044 424.085C480.949 425.905 482.015 428.379 482.045 431.052C482.058 432.394 481.805 433.724 481.3 434.967C480.794 436.21 480.047 437.34 479.101 438.292L456.043 461.35C457.105 461.747 458.227 461.959 459.361 461.976H459.502C462.158 461.976 464.753 460.912 466.654 459.032L490.924 434.762C491.869 433.81 492.616 432.68 493.122 431.437C493.627 430.194 493.881 428.863 493.868 427.522C493.838 424.849 492.772 422.375 490.867 420.555L383.116 317.585V317.586ZM344.83 280.978L298.719 236.92L291.137 244.502L337.242 288.565L344.83 280.978Z" fill="#776A77"/>
<path d="M244.3 268.977L240.912 265.588L229.977 276.523L237.44 283.991L236.234 282.784L247.549 271.469C246.362 270.783 245.271 269.945 244.301 268.976L244.3 268.977ZM349.616 176.818L348.953 176.125C347.447 174.632 345.847 173.237 344.163 171.949C344.372 172.629 344.38 173.368 344.15 174.069C343.952 174.671 343.595 175.208 343.116 175.622C342.637 176.037 342.054 176.314 341.43 176.423C326.746 179.001 305.935 192.264 296.831 208.374L300.874 212.417C301.653 213.201 302.331 214.047 302.913 214.938C311.924 198.69 332.912 185.275 347.689 182.681C348.313 182.572 348.895 182.295 349.374 181.88C349.853 181.465 350.211 180.929 350.408 180.327C350.606 179.725 350.637 179.081 350.497 178.463C350.358 177.845 350.053 177.277 349.616 176.818Z" fill="#9B919B"/>
</svg>
