<svg width="110" height="29" viewBox="0 0 110 29" fill="none" xmlns="http://www.w3.org/2000/svg">
<g id="logo-staubli 1" clip-path="url(#clip0_10359_1525)">
<g id="Group">
<g id="Group_2">
<path id="Vector" fill-rule="evenodd" clip-rule="evenodd" d="M39.1083 5.83204C38.4858 4.6186 39.1466 3.01954 40.5835 2.2635C42.0215 1.50745 43.6922 1.87631 44.3137 3.09132C44.9352 4.30528 44.2754 5.90277 42.8385 6.65986C41.4016 7.41696 39.7299 7.04653 39.1083 5.83204Z" fill="#969A9C"/>
<path id="Vector_2" fill-rule="evenodd" clip-rule="evenodd" d="M47.8055 5.83204C47.1829 4.6186 47.8447 3.01954 49.2807 2.2635C50.7186 1.50745 52.3893 1.87631 53.0103 3.09132C53.6334 4.30528 52.9726 5.90277 51.5356 6.65986C50.0987 7.41696 48.428 7.04653 47.8055 5.83204Z" fill="#969A9C"/>
</g>
<path id="Vector_3" fill-rule="evenodd" clip-rule="evenodd" d="M95.8428 23.7999H100.676L105.924 8.9295V8.92845L101.063 8.91797L95.8428 23.7999Z" fill="#969A9C"/>
<path id="Vector_4" fill-rule="evenodd" clip-rule="evenodd" d="M93.9781 8.90625H89.1575L83.9355 23.8264H94.2258L95.2807 20.9113L89.8291 20.9023L93.9781 8.90625Z" fill="#969A9C"/>
<path id="Vector_5" fill-rule="evenodd" clip-rule="evenodd" d="M81.0722 16.2943C82.0293 16.0082 82.6927 15.7881 83.5769 14.9362C84.4606 14.0843 84.8892 12.4003 84.6643 11.1413C84.4487 9.92474 83.2175 8.91721 81.1461 8.91406L72.4443 8.92087L67.2363 23.818H77.2469C78.5039 23.818 79.4543 23.6158 80.4569 23.2307C81.4589 22.8445 82.4936 21.9413 82.9735 20.2982C83.4807 18.5603 82.8483 16.8837 81.0722 16.2943ZM77.5612 20.5188C77.311 20.6655 76.7753 20.8253 75.7706 20.8237L72.7644 20.8206L74.01 17.4171L76.8658 17.4061C78.3555 17.3992 78.585 18.4325 78.4387 19.1911C78.2898 19.9503 77.8125 20.371 77.5612 20.5188ZM79.385 14.2069C79.0158 14.504 78.6518 14.7806 77.4852 14.8037L74.8978 14.8194L75.9325 11.5704L78.5494 11.5741C79.2743 11.5741 79.7495 11.6831 79.978 12.2673C80.2066 12.8536 79.7531 13.9109 79.385 14.2069Z" fill="#969A9C"/>
<path id="Vector_6" fill-rule="evenodd" clip-rule="evenodd" d="M64.5043 8.87891L61.1169 18.5765C60.6122 19.7946 60.1112 20.13 59.6298 20.4097C59.1505 20.6885 58.4669 20.82 57.9586 20.798C57.4441 20.7749 56.8562 20.809 56.2849 20.1394C55.7502 19.5149 56.0511 18.2223 56.4927 17.1571L59.3966 8.87891H54.7962L51.6746 17.7549C51.4187 18.5953 51.0128 19.9911 51.5676 21.434C52.1224 22.8801 53.3794 23.5696 54.5154 23.9018C55.6545 24.235 56.6416 24.2387 58.4074 24.1701C60.1743 24.0993 62.028 23.5654 63.0078 22.9393C63.9861 22.3158 64.5673 21.7065 65.3652 20.1032L69.3306 8.87891H64.5043Z" fill="#969A9C"/>
<path id="Vector_7" fill-rule="evenodd" clip-rule="evenodd" d="M42.0188 8.89746L31.9121 23.8192H36.2504L38.5198 20.5111H44.7117L44.8426 23.8192H49.549L48.9822 8.89746H42.0188ZM40.7747 17.1883L44.3736 11.8698L44.5799 17.1883H40.7747Z" fill="#969A9C"/>
<path id="Vector_8" fill-rule="evenodd" clip-rule="evenodd" d="M37.3434 12.2156L38.6878 8.89746H24.6079L23.416 12.1055L28.1643 12.1123L24.0996 23.8433H28.9678L33.062 12.2428L37.3434 12.2156Z" fill="#969A9C"/>
<path id="Vector_9" fill-rule="evenodd" clip-rule="evenodd" d="M26.151 6.96785C24.5082 5.92783 22.2021 5.15607 19.9756 4.87576C17.793 4.59912 14.643 5.29072 14.2273 7.61596C13.4548 11.9557 24.2151 13.0555 22.8743 20.5724C21.6948 27.1992 15.1347 29.2007 8.46138 28.354C5.53527 27.983 2.36561 26.7392 0 25.3508L2.29787 21.1273C4.21725 22.3942 6.80778 23.6008 9.42831 23.9314C12.3524 24.3024 15.2883 23.4185 16.0262 20.5604C17.0965 16.4129 5.63506 15.0538 7.29694 7.62277C8.5617 1.97576 14.75 -0.0712641 20.5935 0.669061C23.2579 1.007 25.8712 1.73161 28.195 2.93824L26.151 6.96785Z" fill="#969A9C"/>
</g>
</g>
<defs>
<clipPath id="clip0_10359_1525">
<rect width="109.863" height="29" fill="white"/>
</clipPath>
</defs>
</svg>
