<svg width="512" height="512" viewBox="0 0 512 512" fill="none" xmlns="http://www.w3.org/2000/svg">
<path fill-rule="evenodd" clip-rule="evenodd" d="M357.94 216.662C432.761 177.193 467.459 209.064 488.072 232.631C508.694 256.199 503.388 335.732 503.388 335.732L461.558 365.777C461.558 365.777 470.396 386.985 457.432 429.409C456.122 433.695 454.935 438.018 453.875 442.373H314.158C317.579 420.503 320.822 396.842 321.349 382.867C322.529 351.633 283.119 256.131 357.94 216.662Z" fill="#055EC9"/>
<path fill-rule="evenodd" clip-rule="evenodd" d="M464.335 381.288C464.971 391.892 463.995 407.929 457.432 429.4C456.122 433.686 454.936 438.009 453.875 442.364H449.291C433.364 414.968 385.617 413.55 372.594 405.832C359.528 398.09 338.906 397.504 318.242 414.203C319.846 402.021 321.035 390.856 321.341 382.859C321.417 380.787 321.315 378.419 321.077 375.804L387.323 385.211C387.332 385.219 427.319 382.036 464.335 381.288Z" fill="#547DCB"/>
<path fill-rule="evenodd" clip-rule="evenodd" d="M446.242 335.724C446.242 335.724 436.224 318.048 435.053 282.705C433.873 247.353 465.684 234.983 465.684 234.983C465.684 234.983 427.981 247.947 424.44 278.579C420.909 309.218 433.278 338.67 425.026 359.291C416.774 379.913 449.18 355.76 452.126 344.562C455.08 333.372 446.242 335.724 446.242 335.724Z" fill="#00398C"/>
<path fill-rule="evenodd" clip-rule="evenodd" d="M357.567 216.526C338.83 240.052 325.382 274.639 319.354 309.431L375.82 303.216C380.039 262.872 410.297 209.395 435.571 197.331C440.996 194.623 446.141 201.89 446.141 201.89C399.897 237.411 390.193 287.697 388.334 301.849L390.864 301.569C390.864 301.569 404.643 405.578 464.539 408.142C464.055 411.979 463.282 417.735 462.28 423.687C460.047 429.613 457.399 435.827 454.996 442.373H313.759C317.401 418.737 320.721 399.618 321.349 382.868C321.977 366.117 308.725 340.58 307.137 310.78L310.508 310.407C312.163 298.105 320.526 249.756 352.796 217.206C355.045 214.922 356.692 216.127 357.567 216.526Z" fill="#364549"/>
<path fill-rule="evenodd" clip-rule="evenodd" d="M446.242 335.724C469.216 320.408 497.495 325.706 503.387 335.724C503.387 335.724 501.027 369.895 495.135 384.031C489.243 398.166 477.459 395.815 455.072 399.941C432.684 404.067 364.935 396.995 340.782 387.571L345.494 362.823C345.494 362.823 371.413 364.003 396.747 360.463C422.08 356.931 430.332 347.499 447.414 345.147L446.242 335.724Z" fill="#F4BA98"/>
<path fill-rule="evenodd" clip-rule="evenodd" d="M446.243 335.724C450.883 332.632 455.952 330.238 461.287 328.618C460.013 339.417 467.45 346.327 467.45 346.327C467.45 346.327 458.027 343.967 447.423 345.147L446.243 335.724Z" fill="#CB6665"/>
<path fill-rule="evenodd" clip-rule="evenodd" d="M357.285 365.778C346.682 346.922 349.628 342.804 343.736 334.552C337.844 326.3 341.97 316.29 339.61 313.93C337.249 311.57 331.357 314.516 330.186 321.588C329.006 328.66 334.312 338.084 333.718 345.742C327.826 348.102 319.582 345.742 314.862 349.868C310.141 353.994 311.916 358.706 313.096 360.471C313.096 360.471 308.97 360.471 308.384 364.597C307.798 368.723 309.564 371.075 311.33 372.255C311.33 372.255 307.798 375.787 308.384 378.733C308.97 381.679 311.33 383.445 310.744 386.391C310.158 389.337 311.33 390.517 316.05 393.463C320.762 396.409 336.078 397.589 341.97 395.229C347.862 392.869 359.467 392.801 359.467 392.801L357.285 365.778ZM412.698 127.112H366.768V223.794H389.734C402.366 223.794 412.698 213.462 412.698 200.829V127.112Z" fill="#F4BA98"/>
<path fill-rule="evenodd" clip-rule="evenodd" d="M401.059 127.112H366.769V208.886C367.779 208.97 368.806 209.021 369.833 209.021C389.377 209.021 405.363 193.035 405.363 173.491V144.032C405.372 137.911 403.801 132.146 401.059 127.112Z" fill="#CB6665"/>
<path fill-rule="evenodd" clip-rule="evenodd" d="M375.438 92.8806C355.894 92.8806 339.908 108.867 339.908 128.411V157.879C339.908 177.422 355.894 193.409 375.438 193.409C394.981 193.409 410.968 177.422 410.968 157.879V128.411C410.968 108.867 394.981 92.8806 375.438 92.8806Z" fill="#F4BA98"/>
<path fill-rule="evenodd" clip-rule="evenodd" d="M423.855 114.75C425.035 134.192 423.26 143.794 416.783 154.22L405.72 139.838C405.72 139.838 409.71 112.984 392.035 111.804C392.043 111.804 403.827 104.147 423.855 114.75Z" fill="#364549"/>
<path fill-rule="evenodd" clip-rule="evenodd" d="M335.196 115.803H428.873C431.139 115.803 432.999 117.662 432.999 119.929C432.999 122.196 431.148 124.055 428.873 124.055H335.196C332.929 124.055 331.07 122.196 331.07 119.929C331.07 117.654 332.929 115.803 335.196 115.803Z" fill="#00398C"/>
<path fill-rule="evenodd" clip-rule="evenodd" d="M382.034 68.6675C406.671 68.6675 426.869 89.493 428.728 115.93C428.397 115.845 428.049 115.795 427.692 115.795H336.376C336.019 115.795 335.671 115.837 335.34 115.93C337.199 89.493 357.396 68.6675 382.034 68.6675Z" fill="#055EC9"/>
<path fill-rule="evenodd" clip-rule="evenodd" d="M263.704 274.095L279.192 262.857L359.736 373.861L344.248 385.1L263.704 274.095Z" fill="#CCC8C6"/>
<path d="M276.846 292.171L285.816 285.662L286.499 286.604L277.528 293.112L276.846 292.171ZM280.194 296.791L284.679 293.537L285.362 294.477L280.877 297.732L280.194 296.791ZM283.543 301.408L288.028 298.153L288.711 299.095L284.226 302.349L283.543 301.408ZM286.892 306.026L291.377 302.772L292.059 303.713L287.575 306.967L286.892 306.026ZM290.242 310.653L299.211 304.145L299.894 305.085L290.924 311.594L290.242 310.653ZM303.644 329.129L312.613 322.621L313.296 323.562L304.326 330.07L303.644 329.129ZM317.046 347.607L326.015 341.098L326.699 342.04L317.728 348.548L317.046 347.607ZM330.441 366.089L339.411 359.58L340.094 360.521L331.124 367.03L330.441 366.089Z" fill="white"/>
<path d="M303.643 329.129L312.613 322.621L313.295 323.562L304.326 330.07L303.643 329.129ZM317.045 347.607L326.015 341.098L326.698 342.04L317.728 348.548L317.045 347.607ZM293.589 315.272L298.074 312.018L298.757 312.96L294.271 316.214L293.589 315.272ZM296.938 319.89L301.422 316.637L302.106 317.577L297.621 320.831L296.938 319.89ZM300.287 324.508L304.772 321.253L305.454 322.194L300.97 325.448L300.287 324.508ZM306.991 333.749L311.476 330.495L312.159 331.436L307.673 334.69L306.991 333.749ZM310.34 338.367L314.825 335.113L315.508 336.054L311.023 339.308L310.34 338.367ZM313.695 342.991L318.179 339.737L318.862 340.678L314.377 343.932L313.695 342.991ZM320.393 352.228L324.878 348.973L325.561 349.913L321.076 353.167L320.393 352.228ZM323.742 356.843L328.227 353.589L328.91 354.531L324.425 357.785L323.742 356.843ZM327.097 361.469L331.583 358.215L332.265 359.155L327.78 362.409L327.097 361.469Z" fill="white"/>
<path d="M82.3318 268.177H30.8679V295.631H82.3318V268.177Z" fill="#E8E8E8"/>
<path d="M82.3318 317.827H30.8679V345.257H82.3318V317.827Z" fill="#E8E8E8"/>
<path d="M82.3318 218.79H30.8679V246.245H82.3318V218.79Z" fill="#E8E8E8"/>
<path fill-rule="evenodd" clip-rule="evenodd" d="M154.648 216.581C79.5295 176.953 44.69 208.957 23.994 232.612C3.28975 256.275 8.61419 336.125 8.61419 336.125L50.6078 366.291C50.6078 366.291 41.7393 387.589 54.7454 430.176C56.0656 434.477 57.2557 438.817 58.3142 443.19H198.604C195.167 421.233 191.911 397.479 191.383 383.443C190.205 352.106 229.767 256.217 154.648 216.581Z" fill="#364549"/>
<path fill-rule="evenodd" clip-rule="evenodd" d="M47.8225 381.877C47.1796 392.526 48.1604 408.623 54.7459 430.184C56.066 434.486 57.2562 438.826 58.3147 443.199H62.9138C78.9118 415.686 126.848 414.269 139.92 406.521C153.042 398.749 173.746 398.164 194.491 414.92C192.884 402.689 191.689 391.479 191.384 383.451C191.302 381.366 191.409 378.992 191.648 376.371L125.134 385.817C125.134 385.817 84.9863 382.619 47.8225 381.877ZM65.9882 336.133C65.9882 336.133 76.0436 318.388 77.2304 282.897C78.4173 247.407 46.4708 234.986 46.4708 234.986C46.4708 234.986 84.3269 248 87.8793 278.76C91.4316 309.519 79.0107 339.092 87.2858 359.796C95.5692 380.501 63.0292 356.244 60.0786 345.01C57.1114 333.768 65.9882 336.133 65.9882 336.133Z" fill="#364549"/>
<path fill-rule="evenodd" clip-rule="evenodd" d="M155.019 216.449C173.836 240.071 187.336 274.795 193.386 309.726L136.688 303.486C132.452 262.976 102.08 209.287 76.694 197.171C71.2459 194.451 66.0864 201.745 66.0864 201.745C112.514 237.409 122.257 287.892 124.127 302.102L121.581 301.821C121.581 301.821 107.75 406.249 47.6075 408.829C48.0938 412.678 48.8768 418.456 49.8741 424.431C52.116 430.382 54.7782 436.621 57.1931 443.199H199.007C195.348 419.47 192.018 400.274 191.383 383.451C190.749 366.637 204.06 340.996 205.65 311.077L202.271 310.706C200.614 298.36 192.216 249.813 159.816 217.125C157.549 214.842 155.893 216.054 155.019 216.449Z" fill="#055EC9"/>
<path fill-rule="evenodd" clip-rule="evenodd" d="M65.9869 336.133C42.9171 320.753 14.523 326.078 8.61341 336.133C8.61341 336.133 10.9789 370.437 16.8967 384.638C22.8146 398.831 34.642 396.466 57.1183 400.611C79.5946 404.749 147.617 397.652 171.874 388.19L167.143 363.349C167.143 363.349 141.114 364.536 115.679 360.983C90.2435 357.431 81.9601 347.969 64.8083 345.603L65.9869 336.133Z" fill="#F4BA98"/>
<path fill-rule="evenodd" clip-rule="evenodd" d="M155.299 366.299C165.948 347.367 162.989 343.23 168.907 334.946C174.824 326.663 170.679 316.607 173.044 314.242C175.41 311.876 181.327 314.835 182.506 321.932C183.685 329.028 178.369 338.49 178.954 346.18C184.872 348.546 193.147 346.18 197.886 350.318C202.617 354.455 200.845 359.195 199.658 360.967C199.658 360.967 203.796 360.967 204.389 365.104C204.982 369.242 203.202 371.607 201.43 372.794C201.43 372.794 204.982 376.346 204.389 379.297C203.796 382.256 201.43 384.028 202.023 386.987C202.617 389.946 201.43 391.125 196.699 394.083C191.968 397.042 176.588 398.221 170.67 395.856C164.753 393.49 153.106 393.416 153.106 393.416L155.299 366.299ZM99.6644 126.676H145.779V223.743H122.726C110.041 223.743 99.6727 213.367 99.6727 200.69V126.676H99.6644Z" fill="#F4BA98"/>
<path fill-rule="evenodd" clip-rule="evenodd" d="M111.352 126.676H145.779V208.776C144.766 208.866 143.735 208.908 142.697 208.908C123.08 208.908 107.025 192.852 107.025 173.236V143.655C107.023 137.722 108.511 131.884 111.352 126.676Z" fill="#CB6665"/>
<path fill-rule="evenodd" clip-rule="evenodd" d="M137.076 92.3059C156.701 92.3059 172.748 108.362 172.748 127.978V157.559C172.748 177.183 156.692 193.231 137.076 193.231C117.46 193.231 101.404 177.175 101.404 157.559V127.978C101.404 108.362 117.46 92.3059 137.076 92.3059Z" fill="#F4BA98"/>
<path fill-rule="evenodd" clip-rule="evenodd" d="M88.4641 114.271C87.2772 133.789 89.0575 143.432 95.5606 153.899L106.663 139.459C106.663 139.459 102.657 112.499 120.402 111.312C120.402 111.312 108.575 103.622 88.4641 114.271Z" fill="#282E35"/>
<path fill-rule="evenodd" clip-rule="evenodd" d="M177.479 115.318H83.4277C81.1529 115.318 79.2901 117.181 79.2901 119.455C79.2901 121.73 81.1529 123.593 83.4277 123.593H177.479C179.753 123.593 181.616 121.73 181.616 119.455C181.616 117.181 179.753 115.318 177.479 115.318Z" fill="#00398C"/>
<path fill-rule="evenodd" clip-rule="evenodd" d="M130.458 68C105.723 68 85.4396 88.9103 83.5769 115.458C83.9066 115.368 84.261 115.326 84.6154 115.326H176.301C176.663 115.326 177.01 115.376 177.339 115.458C175.468 88.902 155.193 68 130.458 68Z" fill="#055EC9"/>
<path fill-rule="evenodd" clip-rule="evenodd" d="M106.663 139.459C103.185 127.278 95.3464 128.151 91.8682 131.629C88.39 135.108 84.0382 146.424 91.8682 155.993C99.6982 165.562 107.528 158.606 107.528 158.606C107.528 158.606 114.493 152.507 106.663 139.459Z" fill="#F4BA98"/>
</svg>
