<svg xmlns="http://www.w3.org/2000/svg" width="120" height="80" viewBox="0 0 120 80" fill="none">
<g clip-path="url(#clip0)">
<path d="M94.9932 13H22.4139V68H94.9932V13Z" fill="#2684FF"/>
<path d="M94.9932 13H22.4139V18.8998H94.9932V13Z" fill="#EAEAEE"/>
<path d="M27.1227 17.5429C27.964 17.5429 28.6461 16.8609 28.6461 16.0195C28.6461 15.1782 27.964 14.4961 27.1227 14.4961C26.2813 14.4961 25.5992 15.1782 25.5992 16.0195C25.5992 16.8609 26.2813 17.5429 27.1227 17.5429Z" fill="#0065FF"/>
<path d="M27.1319 17.5429C27.9733 17.5429 28.6554 16.8609 28.6554 16.0195C28.6554 15.1782 27.9733 14.4961 27.1319 14.4961C26.2906 14.4961 25.6085 15.1782 25.6085 16.0195C25.6085 16.8609 26.2906 17.5429 27.1319 17.5429Z" fill="#253858"/>
<path d="M32.0899 17.5429C32.9313 17.5429 33.6134 16.8609 33.6134 16.0195C33.6134 15.1782 32.9313 14.4961 32.0899 14.4961C31.2486 14.4961 30.5665 15.1782 30.5665 16.0195C30.5665 16.8609 31.2486 17.5429 32.0899 17.5429Z" fill="#A5ADBA"/>
<path d="M37.0572 17.5429C37.8986 17.5429 38.5807 16.8609 38.5807 16.0195C38.5807 15.1782 37.8986 14.4961 37.0572 14.4961C36.2159 14.4961 35.5338 15.1782 35.5338 16.0195C35.5338 16.8609 36.2159 17.5429 37.0572 17.5429Z" fill="#0065FF"/>
<path d="M30.6589 56.5977H27.8983V57.4286H30.6589V56.5977Z" fill="#0065FF"/>
<path d="M63.7494 56.5977H60.9888V57.4286H63.7494V56.5977Z" fill="#0065FF"/>
<path d="M25.1376 56.5977H22.4324V57.4286H25.1376V56.5977Z" fill="#0065FF"/>
<path d="M41.6921 56.5977H38.9315V57.4286H41.6921V56.5977Z" fill="#0065FF"/>
<path d="M36.1802 56.5977H33.4196V57.4286H36.1802V56.5977Z" fill="#0065FF"/>
<path d="M52.7253 56.5977H49.9647V57.4286H52.7253V56.5977Z" fill="#0065FF"/>
<path d="M58.2373 56.5977H55.4767V57.4286H58.2373V56.5977Z" fill="#0065FF"/>
<path d="M69.2706 56.5977H66.51V57.4286H69.2706V56.5977Z" fill="#0065FF"/>
<path d="M80.2945 29.0186H77.5339V29.8495H80.2945V29.0186Z" fill="#0065FF"/>
<path d="M25.1376 29.0186H22.4324V29.8495H25.1376V29.0186Z" fill="#0065FF"/>
<path d="M30.6589 29.0186H27.8983V29.8495H30.6589V29.0186Z" fill="#0065FF"/>
<path d="M58.2373 29.0186H55.4767V29.8495H58.2373V29.0186Z" fill="#0065FF"/>
<path d="M74.7826 29.0185H73.8039V27.9844H72.973V29.0185H72.022V29.8402H72.973V30.745H73.8039V29.8402H74.7826V29.0185Z" fill="#0065FF"/>
<path d="M69.2706 29.0186H66.51V29.8495H69.2706V29.0186Z" fill="#0065FF"/>
<path d="M41.6921 29.0186H38.9315V29.8495H41.6921V29.0186Z" fill="#0065FF"/>
<path d="M63.7494 29.0186H60.9888V29.8495H63.7494V29.0186Z" fill="#0065FF"/>
<path d="M52.7253 29.0186H49.9647V29.8495H52.7253V29.0186Z" fill="#0065FF"/>
<path d="M85.8158 29.0186H83.0552V29.8495H85.8158V29.0186Z" fill="#0065FF"/>
<path d="M94.9841 29.0186H94.0885V29.8495H94.9841V29.0186Z" fill="#0065FF"/>
<path d="M91.3279 29.0186H88.5673V29.8495H91.3279V29.0186Z" fill="#0065FF"/>
<path d="M80.3038 29.0186H77.5432V29.8495H80.3038V29.0186Z" fill="#0065FF"/>
<path d="M46.2531 57.4285H47.2041V56.5976H46.2531V55.5635H45.4222V56.5976H44.4435V57.4285H45.4222V58.3241H46.2531V57.4285Z" fill="#0065FF"/>
<path d="M46.2532 61.0752H45.4222V63.8358H46.2532V61.0752Z" fill="#0065FF"/>
<path d="M46.2532 39.0186H45.4222V41.7792H46.2532V39.0186Z" fill="#0065FF"/>
<path d="M47.2041 29.0185H46.2531V27.9844H45.4222V29.0185H44.4435V29.8402H45.4222V30.745H46.2531V29.8402H47.2041V29.0185Z" fill="#0065FF"/>
<path d="M46.2532 22.4727H45.4222V25.2333H46.2532V22.4727Z" fill="#0065FF"/>
<path d="M46.2532 50.0518H45.4222V52.8124H46.2532V50.0518Z" fill="#0065FF"/>
<path d="M46.2532 44.5391H45.4222V47.2997H46.2532V44.5391Z" fill="#0065FF"/>
<path d="M46.2532 33.5059H45.4222V36.2665H46.2532V33.5059Z" fill="#0065FF"/>
<path d="M46.2532 66.5967H45.4222V68.0001H46.2532V66.5967Z" fill="#0065FF"/>
<path d="M73.7854 61.0752H72.9545V63.8358H73.7854V61.0752Z" fill="#0065FF"/>
<path d="M73.7854 66.5967H72.9545V68.0001H73.7854V66.5967Z" fill="#0065FF"/>
<path d="M46.2532 18.8994H45.4222V19.7211H46.2532V18.8994Z" fill="#0065FF"/>
<path d="M73.8039 44.5391H72.9729V47.2997H73.8039V44.5391Z" fill="#0065FF"/>
<path d="M73.8039 50.0518H72.9729V52.8124H73.8039V50.0518Z" fill="#0065FF"/>
<path d="M73.8039 22.4727H72.9729V25.2333H73.8039V22.4727Z" fill="#0065FF"/>
<path d="M73.8039 18.8994H72.9729V19.7211H73.8039V18.8994Z" fill="#0065FF"/>
<path d="M73.8039 39.0186H72.9729V41.7792H73.8039V39.0186Z" fill="#0065FF"/>
<path d="M73.8039 33.5059H72.9729V36.2665H73.8039V33.5059Z" fill="#0065FF"/>
<path d="M73.8039 58.3241V57.4285H74.7826V56.5976H73.8039V55.5635H72.973V56.5976H72.022V57.4285H72.973V58.3241H73.8039Z" fill="#0065FF"/>
<path d="M22.4324 27.2646V31.604L36.7987 31.4193L22.4324 46.1549V52.3779L47.2225 26.9414L22.4324 27.2646Z" fill="#0065FF"/>
<g opacity="0.5">
<path opacity="0.5" d="M45.8376 57.0125L73.3884 29.4248" stroke="#B2D4FF" stroke-width="0.9" stroke-miterlimit="10"/>
<path opacity="0.5" d="M45.8376 29.4248L73.3884 57.0125" stroke="#B2D4FF" stroke-width="0.9" stroke-miterlimit="10"/>
<path opacity="0.5" d="M73.3884 29.4248H45.8376V57.0033H73.3884V29.4248Z" stroke="#B2D4FF" stroke-width="0.9" stroke-miterlimit="10"/>
</g>
<path d="M94.9933 56.5974V47.0137L83.8123 59.5057L82.0304 66.3103L88.5765 63.7713H88.5857L94.9933 56.5974Z" fill="#0065FF"/>
<path d="M76.0659 64.6669L82.6212 62.1186L77.8571 57.8623L76.0659 64.6669Z" fill="#FEEFD3"/>
<path d="M76.0659 64.6671L78.6696 63.6515L76.7768 61.9619L76.0659 64.6671Z" fill="#505F79"/>
<path d="M77.8571 57.8625L82.6212 62.1188L102.61 39.7661L97.8461 35.5098L77.8571 57.8625Z" fill="#FDC150"/>
<path d="M80.2391 59.9953L82.6212 62.1188L102.61 39.7661L100.228 37.6426L80.2391 59.9953Z" fill="#FFAB00"/>
<path d="M77.8571 57.8625L80.2391 59.9952L100.228 37.6426L97.8461 35.5098L77.8571 57.8625Z" fill="url(#paint0_linear)"/>
<path d="M104.743 32.7586L104.558 32.5924C104.258 32.3242 103.907 32.1179 103.527 31.9853C103.147 31.8527 102.744 31.7964 102.342 31.8195C101.939 31.8427 101.546 31.9449 101.183 32.1203C100.821 32.2956 100.496 32.5408 100.228 32.8417L96.9967 36.4702L101.789 40.6988L105.02 37.0795C105.553 36.4684 105.823 35.6713 105.771 34.862C105.719 34.0527 105.35 33.2967 104.743 32.7586Z" fill="#0065FF"/>
<path d="M15.0462 23.7285L15 54.797L46.0223 23.7747L15.0462 23.7285ZM19.6164 43.8469V28.2434H35.2014L19.6164 43.8469Z" fill="#5E6C84"/>
<path d="M31.5274 38.2837L32.1803 37.6309L30.7309 36.1815L30.0781 36.8344L31.5274 38.2837Z" fill="#97A0AF"/>
<path d="M28.9515 40.854L29.6044 40.2012L28.155 38.7518L27.5022 39.4047L28.9515 40.854Z" fill="#97A0AF"/>
<path d="M26.3756 43.4253L27.0284 42.7725L25.5791 41.3231L24.9262 41.976L26.3756 43.4253Z" fill="#97A0AF"/>
<path d="M23.8023 46.0025L24.4552 45.3496L23.0059 43.9003L22.353 44.5531L23.8023 46.0025Z" fill="#97A0AF"/>
<path d="M21.2329 48.5699L21.8857 47.917L20.4364 46.4676L19.7835 47.1205L21.2329 48.5699Z" fill="#97A0AF"/>
<path d="M18.657 51.1411L19.3098 50.4883L17.8605 49.0389L17.2076 49.6918L18.657 51.1411Z" fill="#97A0AF"/>
<path d="M41.8221 27.9781L42.475 27.3252L41.0256 25.8758L40.3728 26.5287L41.8221 27.9781Z" fill="#97A0AF"/>
<path d="M39.2462 30.5493L39.899 29.8965L38.4497 28.4471L37.7968 29.1L39.2462 30.5493Z" fill="#97A0AF"/>
<path d="M36.6728 33.1265L37.3257 32.4736L35.8763 31.0243L35.2235 31.6771L36.6728 33.1265Z" fill="#97A0AF"/>
<path d="M34.0969 35.6968L34.7498 35.0439L33.3004 33.5946L32.6475 34.2475L34.0969 35.6968Z" fill="#97A0AF"/>
</g>
<defs>
<linearGradient id="paint0_linear" x1="77.8571" y1="47.7525" x2="100.228" y2="47.7525" gradientUnits="userSpaceOnUse">
<stop stop-color="#FFAB00"/>
<stop offset="1" stop-color="#FFD740"/>
</linearGradient>
<clipPath id="clip0">
<rect width="90.768" height="55" fill="white" transform="translate(15 13)"/>
</clipPath>
</defs>
</svg>